<svg xmlns="http://www.w3.org/2000/svg" width="48" height="48" viewBox="0 0 48 48" fill="none"><circle cx="24" cy="24" r="24" fill="white"></circle><path d="M42 11.256H36.0987L32.6863 20.728H36.9839L37.7023 18.616L38.1642 16.12V20.728H42V11.256Z" fill="black"></path><path d="M22.7936 11.256H28.6948L32.1073 20.728H27.8097L27.0912 18.616L26.6294 16.12V20.728H22.7936V11.256Z" fill="black"></path><path d="M19.8704 35.576H24.168L27.1443 43H22.8467L19.8704 35.576Z" fill="black"></path><path d="M31.3457 35.576H27.0417L24.168 43H28.3246L31.3457 35.576Z" fill="black"></path><path d="M13.8922 21.24H18.1898L20.5888 27.128H16.1629L13.8922 21.24Z" fill="black"></path><path d="M11.3137 14.84H15.6113L17.9718 20.728H13.6742L11.3137 14.84Z" fill="black"></path><path d="M8.65812 21.24H4.36049L2 27.128H6.29763L8.65812 21.24Z" fill="black"></path><path d="M11.3137 14.84H7.0161L4.65561 20.728H8.95324L11.3137 14.84Z" fill="black"></path><path d="M15.6113 14.84L13.8922 11H8.65812L7.0161 14.84H11.3137H15.6113Z" fill="black"></path><path d="M22.7936 21.24H26.6294V27.128H22.7936V21.24Z" fill="black"></path><path d="M38.1642 21.24H42L42 27.128L38.1642 27.128V21.24Z" fill="black"></path><path d="M13.8922 21.24H8.65812L7.52919 24.056H15.0211L13.8922 21.24Z" fill="black"></path><path d="M16.7531 27.896H20.8839L24.168 35.576H19.8704L16.7531 27.896Z" fill="black"></path><path d="M34.4567 27.896L30.0949 27.896L27.0417 35.576H31.3457L34.4567 27.896Z" fill="black"></path><path d="M34.4567 27.896L30.0949 27.896L27.0417 35.576H31.3457L34.4567 27.896Z" fill="black"></path><path d="M36.8172 21.24H32.8256L30.3259 27.128H34.4567L36.8172 21.24Z" fill="black"></path><path d="M36.8172 21.24H32.8256L30.3259 27.128H34.4567L36.8172 21.24Z" fill="black"></path><path d="M28.1157 21.24H32.1073L34.4567 27.128H30.3259L28.1157 21.24Z" fill="black"></path><path d="M28.1157 21.24H32.1073L34.4567 27.128H30.3259L28.1157 21.24Z" fill="black"></path></svg>